<?xml version="1.0" encoding="UTF-8" standalone="no"?>
<!-- Created with Inkscape (http://www.inkscape.org/) -->

<svg
   version="1.1"
   id="svg25786"
   width="800"
   height="800"
   viewBox="0 0 800 800"
   sodipodi:docname="train-night-publicdomainvectors.org.svg"
   inkscape:version="1.2 (dc2aedaf03, 2022-05-15)"
   xmlns:inkscape="http://www.inkscape.org/namespaces/inkscape"
   xmlns:sodipodi="http://sodipodi.sourceforge.net/DTD/sodipodi-0.dtd"
   xmlns="http://www.w3.org/2000/svg"
   xmlns:svg="http://www.w3.org/2000/svg">
  <defs
     id="defs25790">
    <clipPath
       clipPathUnits="userSpaceOnUse"
       id="clipPath25804">
      <path
         d="M 0,600 H 600 V 0 H 0 Z"
         id="path25802" />
    </clipPath>
  </defs>
  <sodipodi:namedview
     id="namedview25788"
     pagecolor="#ffffff"
     bordercolor="#000000"
     borderopacity="0.25"
     inkscape:showpageshadow="2"
     inkscape:pageopacity="0.0"
     inkscape:pagecheckerboard="0"
     inkscape:deskcolor="#d1d1d1"
     showgrid="false"
     inkscape:zoom="1.04625"
     inkscape:cx="400"
     inkscape:cy="400.4779"
     inkscape:window-width="1920"
     inkscape:window-height="1017"
     inkscape:window-x="-8"
     inkscape:window-y="-8"
     inkscape:window-maximized="1"
     inkscape:current-layer="g25794">
    <inkscape:page
       x="0"
       y="0"
       id="page25792"
       width="800"
       height="800" />
  </sodipodi:namedview>
  <g
     id="g25794"
     inkscape:groupmode="layer"
     inkscape:label="Page 1"
     transform="matrix(1.3333333,0,0,-1.3333333,0,800)">
    <path
       d="M 0.014,0 H 598.86 V 598.846 H 0.014 Z"
       style="fill:#bfd5eb;fill-opacity:1;fill-rule:nonzero;stroke:none"
       id="path25796" />
    <g
       id="g25798">
      <g
         id="g25800"
         clip-path="url(#clipPath25804)">
        <g
           id="g25806"
           transform="translate(144.2368,385.9897)">
          <path
             d="m 0,0 c 38.044,0 69.072,31.028 69.072,69.072 0,38.044 -31.028,69.072 -69.072,69.072 -38.043,0 -69.072,-31.028 -69.072,-69.072 C -69.072,31.028 -38.043,0 0,0"
             style="fill:#e4edf7;fill-opacity:1;fill-rule:evenodd;stroke:none"
             id="path25808" />
        </g>
        <g
           id="g25810"
           transform="translate(598.8604,369.3794)">
          <path
             d="m 0,0 -127.94,127.939 -94.02,-94.02 -112.356,112.355 -110.236,-110.235 -55.825,55.824 -98.469,-98.478 0.476,-362.764 H 0 Z"
             style="fill:#aac5e0;fill-opacity:1;fill-rule:evenodd;stroke:none"
             id="path25812" />
        </g>
        <g
           id="g25814"
           transform="translate(598.8604,336.8745)">
          <path
             d="m 0,0 -59.749,59.749 -75.295,-75.294 -46.285,46.285 -89.39,-89.39 -127.195,127.194 -65.011,-65.011 -53.351,53.353 -51.232,-51.232 -14.133,14.133 -17.205,-17.132 v -339.53 H 0 Z"
             style="fill:#96b5d4;fill-opacity:1;fill-rule:evenodd;stroke:none"
             id="path25816" />
        </g>
        <g
           id="g25818"
           transform="translate(0.0142,286.7051)">
          <path
             d="M 0,0 80.326,80.326 159.239,1.413 263.822,105.996 402.324,-32.507 449.668,14.84 477.228,-12.72 552.132,62.184 598.846,15.47 V -286.705 H 0.476 Z"
             style="fill:#8aabcc;fill-opacity:1;fill-rule:evenodd;stroke:none"
             id="path25820" />
        </g>
        <path
           d="m 0.014,220.455 h 225.389 v 25.353 H 0.014 Z"
           style="fill:#334557;fill-opacity:1;fill-rule:evenodd;stroke:none"
           id="path25822" />
        <g
           id="g25824"
           transform="translate(536.8438,29.1533)">
          <path
             d="m 0,0 1.163,2.013 h -2.324 z m -7.547,-13.073 4.16,7.207 1.898,3.287 h -12.116 l 4.55,-7.881 z m -35.853,10.494 1.965,-3.404 1.966,3.404 z m -2.8,14.485 h -5.564 l 2.781,-4.817 z m -279.838,23.75 0.711,1.229 5.518,9.558 h -12.455 l 1.198,-2.075 z m -6.384,-11.059 0.782,1.353 h -1.564 z m 7.548,-13.074 0.628,1.089 h -1.257 z m -161.712,7.887 1.583,2.741 h -3.166 z m -7.547,-13.074 2.654,4.598 h -5.309 z m 40.647,-35.489 h -46.042 l 1.113,1.927 h -11.305 -26.637 l -0.023,14.381 9.178,15.899 4.55,7.88 h -13.768 l -0.003,2.292 12.69,21.98 5.518,9.559 h -12.771 l 10.633,18.417 10.633,18.416 10.633,-18.416 10.633,-18.417 h -12.77 l 5.518,-9.559 2.735,-4.736 5.83,10.099 10.634,18.415 10.632,-18.415 10.633,-18.418 h -12.77 l 5.518,-9.558 14.014,-24.273 h -15.095 l 4.55,-7.879 z m 86.573,0 7.732,13.393 4.549,7.881 h -15.095 l 14.014,24.273 5.518,9.556 h -12.771 l 10.634,18.418 10.633,18.417 9.277,-16.069 10.476,18.143 10.632,18.417 10.633,-18.417 10.633,-18.416 h -12.771 l 5.519,-9.558 14.014,-24.273 h -15.095 l 4.549,-7.879 20.22,-33.886 z m 177.405,0 h -47.164 l 6.1,10.566 4.549,7.881 h -15.095 l 14.013,24.272 5.519,9.558 h -12.771 l 10.634,18.417 10.633,18.417 10.633,-18.417 10.633,-18.417 h -12.771 l 5.518,-9.558 14.014,-24.272 h -15.095 l 4.55,-7.881 z m 84.298,0 h -58.18 l 11.609,20.106 4.548,7.88 h -15.094 l 14.013,24.272 5.519,9.559 h -12.771 l 10.632,18.416 10.635,18.417 10.633,-18.417 10.633,-18.416 h -12.772 l 5.519,-9.559 14.013,-24.272 h -15.094 l 4.549,-7.88 z m 150.231,0 h -99.833 l 1.675,2.9 h -11.558 -34.963 l 17.48,30.278 4.55,7.881 h -15.095 l 14.014,24.273 5.518,9.557 h -12.771 l 10.634,18.417 10.633,18.417 10.632,-18.417 10.633,-18.417 h -12.771 l 5.519,-9.557 9.247,-16.017 0.884,1.53 5.519,9.559 h -12.771 l 10.633,18.417 10.634,18.417 10.633,-18.417 10.632,-18.417 h -12.771 l 5.519,-9.559 4.976,-8.62 7.628,13.213 5.519,9.559 H -7.171 L 3.462,54.26 14.096,72.677 24.728,54.26 35.361,35.844 H 22.59 L 28.108,26.285 42.123,2.013 H 27.027 l 4.55,-7.879 z m -457.93,109.339 -10.634,-18.417 -10.633,-18.418 h 12.771 l -5.518,-9.558 -14.014,-24.272 h 15.095 l -4.55,-7.88 -17.481,-30.279 h 34.964 34.961 l -17.479,30.279 -4.55,7.88 h 15.094 l -14.013,24.272 -5.519,9.558 h 12.772 l -10.634,18.418 z"
             style="fill:#3c5266;fill-opacity:1;fill-rule:evenodd;stroke:none"
             id="path25826" />
        </g>
        <g
           id="g25828"
           transform="translate(46.5322,18.9072)">
          <path
             d="m 0,0 1.163,2.013 h -2.325 z m 7.548,-13.072 1.508,2.611 4.549,7.881 H 1.49 L 3.388,-5.867 Z M 43.401,-2.58 H 39.47 l 1.966,-3.404 z m 2.801,14.486 2.781,-4.818 2.781,4.818 z m 279.836,23.75 5.029,8.711 1.199,2.076 H 319.81 l 5.518,-9.558 z m 6.385,-11.059 0.782,1.353 h -1.564 z m -7.547,-13.074 0.628,1.089 h -1.257 z m 161.711,7.886 1.584,2.742 h -3.167 z m 7.548,-13.073 2.653,4.597 H 491.48 Z M 95.418,-18.907 H -39.104 l 7.528,13.04 4.55,7.88 h -15.096 l 14.014,24.272 5.519,9.559 H -35.36 L -24.727,54.26 -14.094,72.677 -3.461,54.26 7.172,35.844 H -5.599 l 5.519,-9.559 7.628,-13.213 4.976,8.62 5.519,9.558 H 5.272 L 15.905,49.667 26.538,68.084 37.171,49.667 47.804,31.25 H 35.033 l 5.519,-9.558 0.884,-1.531 9.247,16.018 5.518,9.558 H 43.431 L 54.064,64.153 64.697,82.57 75.33,64.153 85.963,45.737 H 73.192 L 78.711,36.179 92.724,11.906 H 77.629 l 4.549,-7.881 z m 62.058,0 h -46.35 l 5.694,9.86 4.548,7.879 h -15.095 l 14.014,24.273 5.519,9.558 h -12.77 l 10.631,18.418 10.633,18.415 10.634,-18.415 10.633,-18.418 h -12.771 l 5.519,-9.558 14.013,-24.273 h -15.094 l 4.548,-7.879 z m 73.282,0 h -35.334 l 0.185,0.32 4.55,7.88 h -15.095 l 14.013,24.273 5.518,9.558 h -12.77 l 10.633,18.416 10.633,18.417 10.633,-18.417 10.633,-18.416 h -12.77 l 5.518,-9.558 14.014,-24.273 h -15.096 l 4.55,-7.88 z m 130.241,0 h -80.814 l 13.648,23.639 4.55,7.88 h -15.096 l 14.014,24.273 5.517,9.558 h -12.769 l 10.633,18.416 10.632,18.417 10.634,-18.417 10.475,-18.143 9.277,16.068 10.633,-18.417 10.633,-18.417 h -12.771 l 5.52,-9.557 14.013,-24.273 h -15.096 l 4.55,-7.881 z m 81.257,0 h -58.69 l 11.863,20.547 4.549,7.881 h -15.095 l 14.014,24.272 5.519,9.558 h -12.771 l 10.632,18.417 10.633,18.417 10.633,-18.417 10.634,-18.417 h -12.771 l 5.519,-9.558 14.013,-24.272 h -15.095 l 4.55,-7.881 z m 97.626,0 h -80.479 l 4.173,7.227 H 448.48 l 14.015,24.273 5.519,9.558 h -12.772 l 10.633,18.417 10.633,18.417 10.633,-18.417 5.832,-10.099 2.734,4.736 5.519,9.559 h -12.772 l 10.634,18.417 10.633,18.418 10.633,-18.418 10.632,-18.417 h -12.769 l 5.517,-9.559 14.014,-24.272 h -15.096 l 4.55,-7.879 z"
             style="fill:#212930;fill-opacity:1;fill-rule:evenodd;stroke:none"
             id="path25830" />
        </g>
        <g
           id="g25832"
           transform="translate(370.9785,131.1562)">
          <path
             d="m 0,0 v 0 c 28.177,0 51.232,-23.055 51.232,-51.231 v -79.925 H -51.231 v 79.925 C -51.231,-23.055 -28.178,0 0,0 M 227.882,-131.156 V 77.73 h -598.846 v -208.886 h 24.828 v 79.924 c 0,28.177 23.054,51.231 51.231,51.231 28.177,0 51.231,-23.054 51.231,-51.231 v -79.924 H 96.221 v 79.924 c 0,28.177 23.054,51.231 51.231,51.231 28.177,0 51.232,-23.054 51.232,-51.231 v -79.924 z M -147.452,0 v 0 c 28.177,0 51.232,-23.055 51.232,-51.231 v -79.925 h -102.463 v 79.925 c 0,28.176 23.053,51.231 51.231,51.231"
             style="fill:#334557;fill-opacity:1;fill-rule:evenodd;stroke:none"
             id="path25834" />
        </g>
        <g
           id="g25836"
           transform="translate(207.3364,249.1641)">
          <path
             d="m 0,0 h 180.813 l 17.311,-17.312 V -34.624 H 0 Z M -204.219,0 H -6.094 v -34.624 h -198.125 z"
             style="fill:#334557;fill-opacity:1;fill-rule:evenodd;stroke:none"
             id="path25838" />
        </g>
        <path
           d="m 338.789,231.852 h -28.264 v 13.956 h 28.264 z m -33.334,0 h -28.266 v 13.956 h 28.266 z m -33.336,0 h -28.265 v 13.956 h 28.265 z m -107.553,0 h -27.727 v 13.956 h 27.727 z m -32.7,0 h -27.728 v 13.956 h 27.728 z m -32.702,0 H 71.436 v 13.956 h 27.728 z m -32.702,0 H 38.735 v 13.956 h 27.727 z m -32.702,0 H 6.033 v 13.956 H 33.76 Z m 163.508,0 H 169.54 v 13.956 h 27.728 z m 41.514,0 h -28.265 v 13.956 h 28.265 z m 166.679,0 h -28.264 v 13.956 h 14.31 z m -33.335,0 h -28.265 v 13.956 h 28.265 z"
           style="fill:#3e5369;fill-opacity:1;fill-rule:evenodd;stroke:none"
           id="path25840" />
        <g
           id="g25842"
           transform="translate(305.4551,236.3672)">
          <path
             d="M 0,0 -3.078,-4.516 H -17.565 L -8.053,9.44 H 0 Z M 6.434,9.44 H 5.07 V 7.441 Z m -34.7,-4.255 2.901,4.255 h -2.901 z m -13.353,4.255 -9.51,-13.956 h 16.253 l 1.54,2.26 V 9.44 Z m -46.61,-13.956 9.512,13.956 h 12.044 V -4.516 Z m 33.184,13.956 -6.556,-9.62 v 9.62 z m -64.275,-13.956 9.51,13.956 h 1.623 V -4.516 Z m -27.207,0 5.638,8.272 v -8.272 z m 26.472,13.956 -9.512,-13.956 h -6.348 V 9.44 Z m -65.742,-13.956 h 12.208 V 9.44 h -2.697 z m 23.343,13.956 -6.162,-9.04 v 9.04 z m -22.965,0 -9.512,-13.956 h -6.386 v 3.074 l 7.418,10.882 z m -20.872,-2.112 -8.073,-11.844 h -18.019 l 9.51,13.956 h 16.582 z m -32.702,1.786 V 9.44 h -10.378 l -9.511,-13.956 h 10.599 z m -33.669,-13.63 h 0.967 v 1.418 z m 16.932,13.956 -9.511,-13.956 h -1.479 v 8.718 l 3.57,5.238 z M 93.525,1.965 89.108,-4.516 H 71.742 v 0.958 L 80.6,9.44 h 5.452 z M 30.812,-4.516 h 2.522 v 3.704 z M 33.256,9.44 23.744,-4.516 H 6.432 L 15.943,9.44 Z m -304.951,-2.17 -8.033,-11.786 h -17.313 l 9.511,13.956 h 15.835 z M 38.406,-4.258 47.742,9.44 h -7.42 L 38.406,6.628 Z M 55.19,-4.516 H 44.591 L 54.103,9.44 H 64.7 Z"
             style="fill:#465d73;fill-opacity:1;fill-rule:evenodd;stroke:none"
             id="path25844" />
        </g>
        <g
           id="g25846"
           transform="translate(392.04,220.4551)">
          <path
             d="m 0,0 c 3.194,0 5.784,-2.59 5.784,-5.784 0,-3.195 -2.59,-5.784 -5.784,-5.784 -3.193,0 -5.783,2.589 -5.783,5.784 C -5.783,-2.59 -3.193,0 0,0 m -13.119,0 c 3.195,0 5.784,-2.59 5.784,-5.784 0,-3.195 -2.589,-5.784 -5.784,-5.784 -3.194,0 -5.783,2.589 -5.783,5.784 0,3.194 2.589,5.784 5.783,5.784 m -140.399,0 c 3.194,0 5.783,-2.59 5.783,-5.784 0,-3.195 -2.589,-5.784 -5.783,-5.784 -3.195,0 -5.784,2.589 -5.784,5.784 0,3.194 2.589,5.784 5.784,5.784 m -13.118,0 c 3.194,0 5.782,-2.59 5.782,-5.784 0,-3.195 -2.588,-5.784 -5.782,-5.784 -3.196,0 -5.785,2.589 -5.785,5.784 0,3.194 2.589,5.784 5.785,5.784 m -40.28,0 c 3.195,0 5.784,-2.59 5.784,-5.784 0,-3.195 -2.589,-5.784 -5.784,-5.784 -3.194,0 -5.784,2.589 -5.784,5.784 0,3.194 2.59,5.784 5.784,5.784 m -13.119,0 c 3.194,0 5.783,-2.59 5.783,-5.784 0,-3.195 -2.589,-5.784 -5.783,-5.784 -3.195,0 -5.784,2.589 -5.784,5.784 0,3.194 2.589,5.784 5.784,5.784 m -140.4,0 c 3.195,0 5.785,-2.59 5.785,-5.784 0,-3.195 -2.59,-5.784 -5.785,-5.784 -3.193,0 -5.784,2.589 -5.784,5.784 0,3.194 2.591,5.784 5.784,5.784 m -13.119,0 c 3.195,0 5.784,-2.59 5.784,-5.784 0,-3.195 -2.589,-5.784 -5.784,-5.784 -3.193,0 -5.783,2.589 -5.783,5.784 0,3.194 2.59,5.784 5.783,5.784"
             style="fill:#334557;fill-opacity:1;fill-rule:evenodd;stroke:none"
             id="path25848" />
        </g>
      </g>
    </g>
  </g>
</svg>
